<?xml version="1.0" encoding="UTF-8"?>
<svg width="58px" height="34px" viewBox="0 0 58 34" version="1.1" xmlns="http://www.w3.org/2000/svg" xmlns:xlink="http://www.w3.org/1999/xlink">
    <!-- Generator: Sketch 49.3 (51167) - http://www.bohemiancoding.com/sketch -->
    <title>cloud-down-path</title>
    <desc>Created with Sketch.</desc>
    <defs></defs>
    <g id="design" stroke="none" stroke-width="1" fill="none" fill-rule="evenodd">
        <g id="01-home" transform="translate(-1151.000000, -1374.000000)" fill="#282931">
            <g id="expo-1" transform="translate(70.000000, 899.000000)">
                <g id="Group-3" transform="translate(690.000000, 53.000000)">
                    <path d="M418.180606,462.378208 L418.180606,411.812897 C418.180606,410.811661 418.995177,410 420,410 C421.004823,410 421.819394,410.811661 421.819394,411.812897 L421.819394,462.378208 L434.396113,450.153846 C434.797128,449.890828 435.295428,449.821001 435.753691,449.963609 C436.211954,450.106217 436.581807,450.446207 436.761325,450.889882 C437.244044,451.840049 436.976051,452.998223 436.124537,453.641859 L421.400933,467.309286 C421.184111,467.537572 421.029855,467.670373 420.855115,467.771575 C420.649461,467.889588 420.418894,467.95789 420.181939,467.970994 C420.054582,467.983684 420.036388,468 420,468 C419.836648,467.965628 419.818369,467.961985 419.799867,467.960116 C419.638236,467.953306 419.47865,467.921503 419.326824,467.865846 C419.272242,467.838652 419.217661,467.796956 419.144885,467.764323 C419.022289,467.697072 418.90652,467.618144 418.7992,467.528647 C418.744618,467.47426 418.70823,467.396305 418.653649,467.334667 L403.875463,453.629169 C403.023949,452.985533 402.755956,451.827359 403.238675,450.877192 C403.420807,450.435696 403.791771,450.09866 404.249738,449.958602 C404.707704,449.818543 405.204548,449.89018 405.603887,450.153846 L418.180606,462.378208 Z" id="cloud-down-path" transform="translate(420.000000, 439.000000) rotate(-90.000000) translate(-420.000000, -439.000000) "></path>
                </g>
            </g>
        </g>
    </g>
</svg>