<?xml version="1.0" encoding="utf-8"?>
<!-- Generator: Adobe Illustrator 16.0.4, SVG Export Plug-In . SVG Version: 6.00 Build 0)  -->
<!DOCTYPE svg PUBLIC "-//W3C//DTD SVG 1.1//EN" "http://www.w3.org/Graphics/SVG/1.1/DTD/svg11.dtd">
<svg version="1.1" id="Layer_1" xmlns="http://www.w3.org/2000/svg" xmlns:xlink="http://www.w3.org/1999/xlink" x="0px" y="0px"
	 width="240px" height="150px" viewBox="0 0 240 150" enable-background="new 0 0 240 150" xml:space="preserve">
<g>
	<path fill-rule="evenodd" clip-rule="evenodd" fill="#000000" d="M133.759,70.412c-0.281,0-0.561-0.014-0.842,0.002
		c-6.141,0.352-9.908,6.126-7.613,11.664c1.777,4.288,7.369,6.314,12.178,4.413c4.578-1.812,6.592-6.458,4.777-11.017
		C141.022,72.37,137.726,70.4,133.759,70.412z M137.267,84.216c-0.838,1.111-1.906,1.769-3.24,1.68
		c-2.578,0.002-4.615-2.033-5.223-5.097c-0.309-1.575-0.326-3.147-0.008-4.723c0.461-2.303,2.26-4.167,4.301-4.442
		c2.033-0.273,3.969,0.984,5.045,3.255c0.613,1.297,0.814,2.701,0.82,4.089C138.97,80.873,138.438,82.666,137.267,84.216z"/>
	<path fill-rule="evenodd" clip-rule="evenodd" fill="#000000" d="M171.146,70.139c-4.504,0.378-7.961,3.751-8.189,7.99
		c-0.223,4.125,2.891,7.797,7.316,8.635c5.867,1.111,10.996-2.775,10.998-8.334c0.01-1.082-0.066-2.133-0.537-3.148
		C179.067,71.685,175.536,69.77,171.146,70.139z M175.851,83.666c-1.854,2.671-5.061,2.756-7.08,0.186
		c-1.082-1.373-1.834-3.74-1.84-6.171c0.213-1.717,0.439-3.809,2.283-5.268c2.203-1.744,5.004-1.354,6.617,0.947
		C177.917,76.335,177.923,80.676,175.851,83.666z"/>
	<path fill-rule="evenodd" clip-rule="evenodd" fill="#000000" d="M205.728,70.701c-2.178-0.932-4.381-0.699-6.574,0.03
		c-3.518,1.169-5.809,4.161-5.887,7.724c-0.074,3.415,2.084,6.691,5.148,7.807c3.834,1.397,7.889,0.503,10.119-2.246
		c0.279-0.344,0.768-0.745,0.299-1.194c-0.393-0.38-0.783,0.041-1.086,0.309c-2.059,1.812-4.391,2.006-6.807,0.982
		c-2.357-1-3.232-3.102-3.609-5.473c-0.178-1.131,0.285-1.684,1.443-1.672c1.543,0.015,3.086,0.002,4.627,0.002
		c0-0.002,0-0.006,0-0.008c1.496,0,2.992-0.037,4.488,0.012c1.209,0.039,1.588-0.557,1.449-1.649
		C209.058,73.064,207.755,71.569,205.728,70.701z M205.581,74.012c-0.115,1.223-1.168,1.303-2.088,1.43
		c-1.104,0.152-2.209,0.354-3.037,0.274c-0.438,0-0.578,0.017-0.715-0.003c-0.699-0.102-1.664,0.364-2.018-0.486
		c-0.324-0.781,0.318-1.517,0.775-2.137c1.221-1.657,3.795-2.333,5.52-1.491C205.009,72.084,205.692,72.854,205.581,74.012z"/>
	<path fill-rule="evenodd" clip-rule="evenodd" fill="#000000" d="M77.231,85.644c-0.612-0.142-1.163-0.36-1.556-0.872
		c-1.938-2.521-3.876-5.041-5.808-7.567c-0.343-0.449-0.51-0.976,0.023-1.365c1.979-1.445,3.642-3.422,6.29-3.763
		c0.44-0.057,1.067-0.131,0.936-0.777c-0.12-0.59-0.718-0.482-1.176-0.452c-1.964,0.129-3.926,0.125-5.89,0.007
		c-0.454-0.027-1.075-0.184-1.188,0.407c-0.135,0.703,0.54,0.75,1.034,0.851c0.405,0.083,0.899,0.026,1.062,0.519
		c0.182,0.548-0.238,0.885-0.589,1.173c-1.554,1.277-3.126,2.531-4.7,3.783c-0.21,0.168-0.452,0.429-0.738,0.293
		c-0.371-0.177-0.228-0.579-0.23-0.885c-0.013-2.292-0.007-4.585-0.007-6.878c-0.002,0-0.004,0-0.006,0
		c0-2.339,0.014-4.679-0.01-7.018c-0.006-0.576,0.021-1.507-0.896-1.134c-1.526,0.622-3.086,1.071-4.675,1.464
		c-0.232,0.058-0.432,0.223-0.446,0.481c-0.02,0.345,0.248,0.542,0.522,0.551c1.877,0.06,1.805,1.38,1.803,2.693
		c-0.009,5.334-0.017,10.668,0.005,16.003c0.005,1.333-0.121,2.471-1.846,2.532c-0.357,0.014-0.763,0.218-0.712,0.705
		c0.042,0.411,0.42,0.529,0.736,0.503c2.289-0.198,4.574-0.179,6.863-0.01c0.314,0.022,0.685-0.112,0.745-0.511
		c0.062-0.418-0.287-0.55-0.595-0.659c-0.524-0.186-1.223-0.251-1.327-0.889c-0.264-1.616-0.415-3.285,0.065-4.858
		c0.357-1.17,1.501-1.256,2.235-0.268c1.088,1.465,2.124,2.968,3.183,4.453c0.495,0.692,0.626,1.27-0.425,1.558
		c-0.365,0.101-0.756,0.307-0.592,0.784c0.144,0.416,0.568,0.452,0.95,0.433c0.933-0.048,1.866-0.172,2.798-0.163
		c1.307,0.013,2.613,0.129,3.92,0.175c0.419,0.016,0.919-0.002,1.029-0.518C78.137,85.858,77.631,85.735,77.231,85.644z"/>
	<path fill-rule="evenodd" clip-rule="evenodd" fill="#000000" d="M109.905,85.71c-1.459-0.147-1.643-1.171-1.65-2.317
		c-0.012-1.918-0.003-3.835-0.002-5.753c0-2.012,0.023-4.024-0.008-6.035c-0.019-1.194-0.392-1.417-1.323-0.769
		c-1.203,0.837-2.439,1.559-3.893,1.858c-0.371,0.076-0.771,0.238-0.759,0.696c0.012,0.474,0.44,0.598,0.81,0.619
		c1.287,0.071,1.457,0.908,1.45,1.946c-0.018,2.434-0.032,4.865,0.01,7.298c0.021,1.293-0.127,2.362-1.764,2.447
		c-0.354,0.019-0.812,0.175-0.756,0.658c0.062,0.549,0.562,0.592,0.981,0.55c2.241-0.227,4.479-0.221,6.721-0.005
		c0.379,0.037,0.805-0.022,0.884-0.489C110.69,85.92,110.263,85.747,109.905,85.71z"/>
	<path fill-rule="evenodd" clip-rule="evenodd" fill="#000000" d="M56.443,85.614c-0.987-0.156-1.314-0.784-1.316-1.684
		c-0.003-1.264-0.001-2.528-0.001-3.79c-0.037-1.87,0.064-3.74-0.255-5.602c-0.346-2.01-1.494-3.293-3.414-3.87
		c-2.314-0.694-4.324-0.014-6.139,1.466c-0.315,0.257-0.662,0.68-1.086,0.519c-0.487-0.186-0.254-0.737-0.293-1.131
		c-0.074-0.757-0.217-1.464-1.145-0.736c-1.198,0.939-2.478,1.669-3.956,2.047c-0.321,0.082-0.662,0.241-0.675,0.622
		c-0.018,0.497,0.406,0.6,0.777,0.63c1.148,0.092,1.294,0.855,1.289,1.784c-0.014,2.573-0.021,5.147,0,7.72
		c0.009,1.11-0.254,1.935-1.547,2.074c-0.396,0.042-0.927,0.177-0.803,0.75c0.109,0.506,0.627,0.536,1.04,0.494
		c2.056-0.218,4.108-0.223,6.163-0.002c0.381,0.041,0.801-0.01,0.933-0.44c0.15-0.488-0.248-0.7-0.614-0.763
		c-1.234-0.205-1.394-1.147-1.412-2.1c-0.043-2.339-0.021-4.679-0.003-7.019c0.003-0.368,0.099-0.742,0.193-1.103
		c0.467-1.799,2.23-2.945,4.19-2.74c1.764,0.184,2.784,1.357,2.817,3.384c0.042,2.621,0.012,5.241,0.013,7.862
		c0.001,0.808-0.158,1.481-1.117,1.677c-0.397,0.08-0.911,0.245-0.739,0.81c0.15,0.495,0.647,0.467,1.073,0.419
		c1.915-0.211,3.828-0.191,5.743-0.004c0.498,0.049,1.16,0.168,1.266-0.511C57.52,85.773,56.888,85.685,56.443,85.614z"/>
	<path fill-rule="evenodd" clip-rule="evenodd" fill="#000000" d="M124.933,72.592c-0.076-0.799-0.465-1.443-1.252-1.717
		c-1.227-0.429-2.397-0.299-3.438,0.534c-0.574,0.461-1.134,0.942-1.893,1.575c-0.032-0.568-0.041-0.844-0.065-1.12
		c-0.043-0.5,0.062-1.099-0.526-1.341c-0.519-0.214-0.866,0.242-1.228,0.509c-1.064,0.786-2.179,1.444-3.5,1.711
		c-0.363,0.072-0.771,0.233-0.781,0.685c-0.012,0.478,0.406,0.612,0.779,0.643c1.104,0.093,1.361,0.781,1.354,1.743
		c-0.018,2.619-0.014,5.24-0.001,7.86c0.006,1.052-0.26,1.836-1.49,1.969c-0.437,0.047-1.057,0.154-0.907,0.803
		c0.133,0.569,0.717,0.521,1.18,0.468c2.148-0.246,4.293-0.218,6.442-0.024c0.553,0.049,1.329,0.163,1.444-0.479
		c0.141-0.767-0.7-0.727-1.206-0.788c-0.843-0.104-1.493-0.411-1.5-1.338c-0.022-2.853-0.129-5.714,0.059-8.554
		c0.149-2.271,1.67-2.869,3.479-1.576c0.678,0.484,1.369,0.596,2.098,0.18C124.642,73.955,125.007,73.364,124.933,72.592z"/>
	<path fill-rule="evenodd" clip-rule="evenodd" fill="#000000" d="M228.044,67.568c1.168,0.013,2.215-1.063,2.211-2.276
		c-0.002-1.132-1.002-2.112-2.182-2.14c-1.139-0.026-2.158,0.95-2.205,2.113C225.819,66.447,226.866,67.554,228.044,67.568z"/>
	<path fill-rule="evenodd" clip-rule="evenodd" fill="#000000" d="M237.337,67.567c1.092,0.004,2.121-1.051,2.137-2.19
		c0.016-1.176-1.064-2.25-2.242-2.229c-1.166,0.021-2.135,1.007-2.125,2.165C235.116,66.53,236.138,67.562,237.337,67.567z"/>
	<path fill-rule="evenodd" clip-rule="evenodd" fill="#000000" d="M35.958,84.363c-1.303,0.583-1.815,0.308-1.875-1.133
		c-0.066-1.588-0.015-3.181-0.015-4.771c-0.011,0-0.021,0-0.032,0c0-1.451,0.03-2.902-0.007-4.352
		c-0.057-2.259-0.685-3.012-2.857-3.496c-2.334-0.521-4.576-0.153-6.686,0.888c-1.397,0.69-2.635,1.63-3.299,3.125
		c-0.191,0.43-0.333,0.907,0.037,1.32c0.322,0.361,0.75,0.264,1.179,0.221c1.348-0.135,2.032-1.041,2.555-2.139
		c0.525-1.101,1.252-1.99,2.483-2.31c0.912-0.236,1.915-0.238,2.368,0.685c0.66,1.345,0.38,2.853,0.221,4.278
		c-0.105,0.938-1.13,1.006-1.82,1.346c-1.844,0.912-3.778,1.654-5.431,2.918c-1.662,1.268-2.258,2.952-1.579,4.376
		c0.71,1.489,2.695,2.254,4.607,1.769c1.238-0.314,2.414-0.797,3.391-1.624c0.765-0.646,1.218-0.714,1.864,0.234
		c1.269,1.863,4.623,1.474,5.636-0.568c0.147-0.297,0.314-0.624,0.011-0.898C36.44,83.985,36.207,84.252,35.958,84.363z
		 M30.11,80.924c0.022,2.349-0.556,3.243-2.411,3.842c-1.027,0.33-2.039,0.285-2.628-0.659c-0.592-0.947-0.404-2.021,0.374-2.842
		c1.08-1.14,2.535-1.718,3.92-2.382c0.464-0.223,0.716,0.039,0.739,0.502C30.129,79.896,30.11,80.41,30.11,80.924z"/>
	<path fill-rule="evenodd" clip-rule="evenodd" fill="#000000" d="M106.443,67.793c1.295-0.035,2.128-0.948,2.08-2.275
		c-0.043-1.166-1.02-2.103-2.169-2.08c-1.202,0.023-2.165,1.081-2.109,2.313C104.302,66.955,105.238,67.826,106.443,67.793z"/>
	<path fill-rule="evenodd" clip-rule="evenodd" fill="#000000" d="M98.204,69.466c-2.333-0.466-4.57,0.138-6.54,1.455
		c-1.034,0.691-0.919,1.862,0.137,2.533c0.763,0.485,1.656,0.629,2.52,0.829c2.383,0.55,2.946,1.35,2.523,3.749
		c-0.128,0.732-0.315,1.476-0.615,2.151c-1.072,2.42-2.931,2.947-4.73,1.052c-3.104-3.272-6.091-6.714-5.481-11.413
		c0-0.54,0-0.728,0-0.915c0.018-7.491,5.101-11.652,12.523-10.255c1.023,0.192,1.4-0.237,1.21-1.363
		c-0.167-0.982-0.853-1.408-1.729-1.602c-1.201-0.267-2.423-0.254-3.629-0.093c-8.488,1.135-14.749,8.251-14.849,16.838
		c-0.005,0.418-0.022,0.853-0.137,1.249c-0.283,0.978,0.033,1.775,0.453,2.665c1.189,2.516,2.163,5.144,4.399,6.996
		c0.134,0.112,0.185,0.321,0.274,0.487c2.232,4.134,7.36,5.025,10.803,1.826c2.607-2.425,3.71-5.547,3.918-9.032
		c0.044-0.746,0.013-1.48,0.556-2.114C101.456,72.589,100.677,69.96,98.204,69.466z"/>
	<path fill-rule="evenodd" clip-rule="evenodd" fill="#000000" d="M231.493,85.41c-1.27-0.116-1.451-0.937-1.438-1.978
		c0.023-1.918,0.008-3.837,0.008-5.756c-0.004,0-0.008,0-0.01,0c0-2.106,0.033-4.212-0.014-6.317
		c-0.029-1.242-0.439-1.436-1.439-0.777c-1.178,0.775-2.387,1.475-3.762,1.844c-0.354,0.095-0.797,0.17-0.834,0.629
		c-0.041,0.499,0.412,0.611,0.766,0.643c1.184,0.106,1.398,0.854,1.387,1.86c-0.023,2.526-0.029,5.055,0.006,7.581
		c0.016,1.207-0.193,2.143-1.658,2.253c-0.404,0.031-0.898,0.218-0.758,0.788c0.107,0.438,0.551,0.475,0.93,0.438
		c2.197-0.213,4.389-0.226,6.584,0.002c0.42,0.043,0.932,0.037,1.045-0.475C232.433,85.561,231.878,85.445,231.493,85.41z"/>
	<path fill-rule="evenodd" clip-rule="evenodd" fill="#000000" d="M222.155,70.697c-1.031-0.532-2.076-0.416-3.104,0.071
		c-0.863,0.411-1.469,1.133-2.191,1.844c-0.369-0.369-0.26-0.713-0.287-1.026c-0.047-0.505,0.064-1.115-0.461-1.391
		c-0.646-0.339-1.006,0.281-1.428,0.61c-1.008,0.783-2.084,1.417-3.346,1.708c-0.357,0.082-0.793,0.181-0.797,0.651
		c-0.006,0.48,0.424,0.586,0.793,0.63c1,0.12,1.326,0.742,1.324,1.653c-0.004,2.712-0.006,5.424-0.002,8.136
		c0.002,0.962-0.328,1.621-1.393,1.755c-0.439,0.056-1.09,0.119-0.99,0.736c0.109,0.674,0.771,0.536,1.271,0.499
		c2.148-0.159,4.297-0.149,6.447,0.005c0.502,0.035,1.191,0.16,1.275-0.494c0.092-0.697-0.645-0.698-1.119-0.746
		c-0.918-0.092-1.539-0.459-1.541-1.453c-0.004-2.852-0.098-5.709,0.066-8.552c0.121-2.136,1.781-2.767,3.432-1.475
		c0.961,0.753,2.164,0.581,2.793-0.398C223.511,72.504,223.188,71.229,222.155,70.697z"/>
	<path fill-rule="evenodd" clip-rule="evenodd" fill="#000000" d="M237.724,70.559c-1.162,0.803-2.348,1.537-3.748,1.85
		c-0.318,0.071-0.664,0.203-0.688,0.599c-0.029,0.438,0.336,0.532,0.66,0.565c1.232,0.124,1.459,0.922,1.453,1.98
		c-0.023,3.695-0.07,7.391,0.014,11.085c0.062,2.837,0.029,5.571-2.689,7.365c-0.037,0.025-0.064,0.066-0.094,0.102
		c-0.195,0.223-0.355,0.479-0.162,0.752c0.191,0.271,0.479,0.194,0.764,0.118c2.75-0.741,5.799-4.538,5.857-7.42
		c0.055-2.665,0.012-5.332,0.012-7.999c0.006,0,0.01,0,0.016,0c0-2.759,0.02-5.519-0.01-8.278
		C239.095,69.993,238.774,69.832,237.724,70.559z"/>
	<path fill-rule="evenodd" clip-rule="evenodd" fill="#000000" d="M191.765,84.25c-2.291,0.984-3.412,0.346-3.477-2.137
		c-0.08-2.896-0.01-5.795-0.043-8.691c-0.012-0.983,0.438-1.333,1.367-1.297c0.791,0.031,1.588,0.014,2.381-0.025
		c0.488-0.025,0.748-0.337,0.75-0.838c0.002-0.506-0.26-0.8-0.752-0.827c-0.652-0.035-1.312-0.087-1.961-0.021
		c-1.311,0.134-1.947-0.33-1.789-1.716c0.059-0.507,0.006-1.027-0.012-1.541c-0.008-0.335-0.061-0.7-0.412-0.824
		c-0.447-0.158-0.713,0.171-0.873,0.517c-0.822,1.786-2.221,2.964-3.941,3.825c-0.334,0.167-0.678,0.399-0.562,0.858
		c0.109,0.44,0.51,0.548,0.883,0.547c1.02-0.004,1.236,0.574,1.215,1.455c-0.033,1.588-0.008,3.178-0.008,4.768
		c0.006,0,0.014,0,0.021,0c0,1.682-0.049,3.365,0.012,5.046c0.068,1.953,1.088,3.122,3.006,3.487
		c1.893,0.361,3.488-0.31,4.859-1.581c0.303-0.28,0.709-0.645,0.441-1.073C192.554,83.673,192.122,84.098,191.765,84.25z"/>
	<path fill-rule="evenodd" clip-rule="evenodd" fill="#000000" d="M161.743,84.729c-1.527-0.244-3.07-0.272-4.615-0.277
		c-0.934-0.002-1.867,0.004-2.783-0.255c-0.771-0.217-1.205-0.649-1.215-1.484c-0.098-7.073-0.369-14.149,0.312-21.208
		c0.359-3.734-1.064-4.873-4.572-3.569c-2.254,0.837-2.756,1.643-2.396,4.048c0.242,1.632,0.357,3.288,0.119,4.895
		c-0.682,4.612,0.42,9.237-0.215,13.845c-0.078,0.566,0.178,1.191,0.336,1.774c0.156,0.561,0.178,1.079-0.018,1.643
		c-1.182,3.405-0.68,4.089,2.91,4.029c0.047,0,0.094,0,0.141,0c2.654-0.224,5.314-0.296,7.977-0.396
		c1.389-0.052,2.811-0.113,4.16-0.553c0.746-0.243,1.754-0.424,1.711-1.377C163.548,84.845,162.513,84.854,161.743,84.729z"/>
	<path fill-rule="evenodd" clip-rule="evenodd" fill="#000000" d="M13.624,56.445c-2.318-0.262-4.464,0.363-6.297,1.842
		c-0.593,0.479-1.004,0.511-1.526-0.073c-0.831-0.93-1.972-1.222-3.159-1.31c-1.55-0.115-2.442,0.633-2.171,2.145
		c0.361,2.019,0.516,4.075,0.935,6.056c0.337,1.595,0.534,3.093,0.266,4.678c-0.069,0.411-0.142,0.845-0.088,1.251
		c0.561,4.263,0.34,8.547,0.453,12.823c-0.125,3.833,2.078,5.669,5.874,4.921c1.789-0.354,3.569-0.759,5.259-1.466
		c1.476-0.617,2.816-1.425,3.998-2.541c3.096-2.92,3.228-9.448-0.837-11.281c-0.736-0.332-0.418-0.603,0.032-0.958
		c2.131-1.683,3.528-3.835,4.082-6.514C21.433,61.229,18.455,56.989,13.624,56.445z M16.391,80.543
		c-0.847,2.733-3.915,4.922-6.875,4.895c-1.319-0.011-0.894-1.023-1.021-1.815c0.361-1.448,0.251-2.962,0.086-4.507
		c-0.354-3.317,2.227-5.118,5.399-3.86C16.131,76.107,17.104,78.241,16.391,80.543z M17.029,66.574
		c-0.602,2.963-4.262,6.135-7.276,6.353c-1.288,0.094-1.486-0.658-1.43-1.915c0.315-1.053,0.032-2.343-0.042-3.642
		C8.135,64.821,9.822,62.609,12.277,62C15.206,61.273,17.631,63.607,17.029,66.574z"/>
</g>
</svg>
