<?xml version="1.0" encoding="utf-8"?>
<!-- Generator: Adobe Illustrator 16.0.0, SVG Export Plug-In . SVG Version: 6.00 Build 0)  -->
<!DOCTYPE svg PUBLIC "-//W3C//DTD SVG 1.1//EN" "http://www.w3.org/Graphics/SVG/1.1/DTD/svg11.dtd">
<svg version="1.1" id="Layer_1" xmlns="http://www.w3.org/2000/svg" xmlns:xlink="http://www.w3.org/1999/xlink" x="0px" y="0px"
	 width="20px" height="20px" viewBox="0 0 20 20" enable-background="new 0 0 20 20" xml:space="preserve">
<g>
	<g>
		<path fill-rule="evenodd" clip-rule="evenodd" fill="#FFFFFF" d="M7.44,10l7.718-7.88c0.475-0.483,0.475-1.268,0-1.751
			c-0.475-0.484-1.244-0.484-1.719,0L4.977,9.009C4.934,9.043,4.882,9.06,4.842,9.101C4.599,9.349,4.485,9.675,4.491,10
			c-0.006,0.325,0.108,0.651,0.352,0.898c0.039,0.04,0.09,0.057,0.133,0.09l8.464,8.643c0.475,0.484,1.244,0.484,1.719,0
			c0.475-0.482,0.475-1.268,0-1.75L7.44,10z"/>
	</g>
</g>
</svg>
