<?xml version="1.0" encoding="utf-8"?>
<!-- Generator: Adobe Illustrator 16.0.0, SVG Export Plug-In . SVG Version: 6.00 Build 0)  -->
<!DOCTYPE svg PUBLIC "-//W3C//DTD SVG 1.1//EN" "http://www.w3.org/Graphics/SVG/1.1/DTD/svg11.dtd">
<svg version="1.1" id="Layer_1" xmlns="http://www.w3.org/2000/svg" xmlns:xlink="http://www.w3.org/1999/xlink" x="0px" y="0px"
	 width="20px" height="20px" viewBox="0 0 20 20" enable-background="new 0 0 20 20" xml:space="preserve">
<g>
	<g>
		<path fill-rule="evenodd" clip-rule="evenodd" fill="#FFFFFF" d="M15.158,9.102c-0.039-0.04-0.091-0.057-0.134-0.09L6.561,0.368
			c-0.475-0.484-1.244-0.484-1.719,0c-0.475,0.482-0.475,1.268,0,1.75L12.561,10l-7.718,7.88c-0.475,0.483-0.475,1.268,0,1.751
			c0.475,0.484,1.244,0.484,1.719,0l8.463-8.642c0.043-0.034,0.095-0.05,0.134-0.09c0.243-0.248,0.357-0.574,0.352-0.898
			C15.516,9.675,15.401,9.349,15.158,9.102z"/>
	</g>
</g>
</svg>
