<?xml version="1.0" encoding="utf-8"?>
<!-- Generator: Adobe Illustrator 16.0.0, SVG Export Plug-In . SVG Version: 6.00 Build 0)  -->
<!DOCTYPE svg PUBLIC "-//W3C//DTD SVG 1.1//EN" "http://www.w3.org/Graphics/SVG/1.1/DTD/svg11.dtd">
<svg version="1.1" id="Layer_1" xmlns="http://www.w3.org/2000/svg" xmlns:xlink="http://www.w3.org/1999/xlink" x="0px" y="0px"
	 width="78px" height="78px" viewBox="0 0 78 78" enable-background="new 0 0 78 78" xml:space="preserve">
<circle opacity="1" cx="39" cy="38.99951" r="39"/>
<g>
	<path fill="#FFFFFF" d="M28.74316,57c-0.12695,0-0.25293-0.03223-0.36621-0.09668C28.14258,56.77051,28,56.51953,28,56.25v-34.5
		c0-0.26953,0.14258-0.51953,0.37695-0.65332c0.23242-0.13184,0.51855-0.12891,0.74805,0.01074l28.5127,17.25
		C57.86328,38.49219,58,38.73633,58,39s-0.13672,0.50879-0.3623,0.64355l-28.5127,17.25C29.00781,56.96484,28.875,57,28.74316,57z
		 M29.4873,23.07422v31.85156L55.80957,39L29.4873,23.07422z"/>
</g>
</svg>
