<?xml version="1.0" encoding="UTF-8"?>
<svg width="58px" height="34px" viewBox="0 0 58 34" version="1.1" xmlns="http://www.w3.org/2000/svg" xmlns:xlink="http://www.w3.org/1999/xlink">
    <!-- Generator: Sketch 49.3 (51167) - http://www.bohemiancoding.com/sketch -->
    <title>cloud-down-path</title>
    <desc>Created with Sketch.</desc>
    <defs></defs>
    <g id="design" stroke="none" stroke-width="1" fill="none" fill-rule="evenodd">
        <g id="01-home" transform="translate(-760.000000, -1374.000000)" fill="#282931">
            <g id="expo-1" transform="translate(70.000000, 899.000000)">
                <g id="Group-3" transform="translate(690.000000, 53.000000)">
                    <path d="M27.1806062,462.378208 L27.1806062,411.812897 C27.1806062,410.811661 27.9951765,410 29,410 C30.0048235,410 30.8193938,410.811661 30.8193938,411.812897 L30.8193938,462.378208 L43.3961132,450.153846 C43.7971277,449.890828 44.2954284,449.821001 44.7536913,449.963609 C45.2119542,450.106217 45.5818074,450.446207 45.7613251,450.889882 C46.2440445,451.840049 45.9760514,452.998223 45.1245373,453.641859 L30.4009332,467.309286 C30.1841108,467.537572 30.0298551,467.670373 29.8551151,467.771575 C29.6494613,467.889588 29.4188943,467.95789 29.1819394,467.970994 C29.0545818,467.983684 29.0363879,468 29,468 C28.8366477,467.965628 28.8183692,467.961985 28.7998667,467.960116 C28.6382362,467.953306 28.4786502,467.921503 28.3268243,467.865846 C28.2722425,467.838652 28.2176607,467.796956 28.1448849,467.764323 C28.0222893,467.697072 27.9065203,467.618144 27.7992001,467.528647 C27.7446183,467.47426 27.7082304,467.396305 27.6536486,467.334667 L12.8754627,453.629169 C12.0239486,452.985533 11.7559555,451.827359 12.2386749,450.877192 C12.4208069,450.435696 12.7917712,450.09866 13.2497375,449.958602 C13.7077039,449.818543 14.2045485,449.89018 14.6038868,450.153846 L27.1806062,462.378208 Z" id="cloud-down-path" transform="translate(29.000000, 439.000000) scale(-1, 1) rotate(-90.000000) translate(-29.000000, -439.000000) "></path>
                </g>
            </g>
        </g>
    </g>
</svg>