<?xml version="1.0" encoding="UTF-8"?>
<svg width="354px" height="379px" viewBox="0 0 354 379" version="1.1" xmlns="http://www.w3.org/2000/svg" xmlns:xlink="http://www.w3.org/1999/xlink">
    <!-- Generator: Sketch 50.2 (55047) - http://www.bohemiancoding.com/sketch -->
    <title>logo</title>
    <desc>Created with Sketch.</desc>
    <defs></defs>
    <g id="design" stroke="none" stroke-width="1" fill="none" fill-rule="evenodd">
        <g id="05-single-content-portrait" transform="translate(-80.000000, -53.000000)">
            <g id="logo" transform="translate(52.000000, 53.000000)">
                <g id="wordmark" transform="translate(229.000000, 0.000000)" fill="#1D1D1B">
                    <path d="M12.1993169,13.9470275 C12.1993169,7.98883925 11.4413745,5.7683151 9.82443074,5.7683151 C8.46013441,5.7683151 7.09770955,6.67560593 7.09770955,18.896907 C7.09770955,30.7122655 7.80512246,32.0254988 9.82443074,32.0254988 C11.997199,32.0254988 12.5024939,28.6919065 12.6035529,23.4913529 L18.1599257,23.7438978 C18.1599257,30.0051399 17.2503949,37.5796153 9.57178327,37.5796153 C2.55005511,37.5796153 0.227569868,30.7122655 0.227569868,18.896907 C0.227569868,5.16220741 4.36911689,0.212327941 9.57178327,0.212327941 C17.1512073,0.212327941 18.0588668,7.18256637 18.0588668,13.7468623 L12.1993169,13.9470275 Z" id="Fill-1"></path>
                    <polygon id="Fill-3" points="21.7520113 0.919640649 36.6039395 0.919640649 36.6039395 6.4756278 28.318974 6.4756278 28.318974 15.6645197 34.4311713 15.6645197 34.4311713 21.52169 28.318974 21.52169 28.318974 31.3185603 36.957646 31.3185603 36.957646 36.8726767 21.7520113 36.8726767"></polygon>
                    <polygon id="Fill-5" points="39.2851842 0.919640649 45.7005584 0.919640649 51.7135682 19.9054028 51.8127557 19.9054028 51.8127557 0.919640649 57.0659516 0.919640649 57.0659516 36.8726767 51.9643442 36.8726767 44.942616 15.108921 44.841557 15.108921 44.841557 36.8726767 39.2851842 36.8726767"></polygon>
                    <polygon id="Fill-7" points="64.0947913 6.47506659 58.4373595 6.47506659 58.4373595 0.919079438 76.3191858 0.919079438 76.3191858 6.47506659 70.661754 6.47506659 70.661754 36.8721155 64.0947913 36.8721155"></polygon>
                    <path d="M84.5073967,16.1701706 L85.8211635,16.1701706 C88.2465792,16.1701706 89.1542387,13.7457399 89.1542387,11.1697822 C89.1542387,7.2824619 87.7412843,6.17126447 85.5179866,6.17126447 L84.5073967,6.17126447 L84.5073967,16.1701706 Z M77.940434,0.92020186 L85.3158686,0.92020186 C91.5796544,0.92020186 95.7230728,3.54479781 95.7230728,11.1211439 C95.7230728,14.1498117 94.813542,18.1886589 91.8828313,19.905964 L95.7736023,36.8713672 L89.1542387,36.8713672 L86.073811,21.4212332 L84.5073967,21.4212332 L84.5073967,36.8713672 L77.940434,36.8713672 L77.940434,0.92020186 Z" id="Fill-9"></path>
                    <path d="M105.931341,6.47506659 L105.830282,6.47506659 L103.758572,23.6425057 L107.851461,23.6425057 L105.931341,6.47506659 Z M101.739264,0.919079438 L111.235066,0.919079438 L115.67979,36.8721155 L109.365475,36.8721155 L108.407286,28.8935683 L103.101689,28.8935683 L102.192158,36.8721155 L96.6881862,36.8721155 L101.739264,0.919079438 Z" id="Fill-11"></path>
                    <path d="M125.536036,6.47506659 L125.434977,6.47506659 L123.363267,23.6425057 L127.456156,23.6425057 L125.536036,6.47506659 Z M121.343959,0.919079438 L130.839761,0.919079438 L135.284485,36.8721155 L128.97017,36.8721155 L128.011981,28.8935683 L122.706384,28.8935683 L121.796853,36.8721155 L116.292881,36.8721155 L121.343959,0.919079438 Z" id="Fill-13"></path>
                    <polygon id="Fill-15" points="137.715141 0.919640649 144.282103 0.919640649 144.282103 31.3185603 152.668128 31.3185603 152.668128 36.8726767 137.715141 36.8726767"></polygon>
                    <polygon id="Fill-17" points="0.933859902 43.9458038 9.67359085 43.9458038 12.60243 62.3778379 12.7053605 62.3778379 15.7857881 43.9458038 24.3234011 43.9458038 24.3234011 79.8988399 18.4638513 79.8988399 18.4638513 53.5406382 18.3627923 53.5406382 13.9161969 79.8988399 10.2799448 79.8988399 5.88575028 53.5406382 5.78281983 53.5406382 5.78281983 79.8988399 0.933859902 79.8988399"></polygon>
                    <path d="M28.0674494,43.9458038 L34.6344121,43.9458038 L34.6344121,71.7687657 C34.6344121,73.3850529 34.9881186,75.051849 36.9082394,75.051849 C38.7273011,75.051849 39.3336551,73.4860708 39.3336551,71.7687657 L39.3336551,43.9458038 L44.8900279,43.9458038 L44.8900279,70.9101132 C44.8900279,77.9794988 41.7571993,80.6059655 36.5040034,80.6059655 C31.4529255,80.6059655 28.0674494,77.9794988 28.0674494,70.9101132 L28.0674494,43.9458038 Z" id="Fill-19"></path>
                    <path d="M53.3823515,69.496236 C53.3823515,71.516595 53.3823515,75.0522232 56.2120031,75.0522232 C58.3828999,75.0522232 59.1408423,73.0318642 59.1408423,71.567104 C59.1408423,65.154335 47.2196247,63.6895747 47.2196247,53.0340519 C47.2196247,47.6314623 50.1484639,43.2390523 55.7067082,43.2390523 C61.6167875,43.2390523 63.8887432,47.7324803 64.0403317,54.1957583 L58.1807819,54.1957583 C58.1807819,52.17727 58.1807819,48.7950394 55.5551197,48.7950394 C53.9887054,48.7950394 53.0791745,50.1064021 53.0791745,52.0743814 C53.0791745,58.1859672 65.0003921,60.2568352 65.0003921,70.7084514 C65.0003921,76.2120589 61.869435,80.6044689 55.9574842,80.6044689 C48.9376275,80.6044689 47.5228017,74.4461155 47.5228017,69.496236 L53.3823515,69.496236 Z" id="Fill-21"></path>
                    <polygon id="Fill-23" points="67.5818878 43.9458038 82.433816 43.9458038 82.433816 49.5017909 74.1488505 49.5017909 74.1488505 58.6906828 80.2610478 58.6906828 80.2610478 64.5478531 74.1488505 64.5478531 74.1488505 74.3447234 82.7875225 74.3447234 82.7875225 79.8988399 67.5818878 79.8988399"></polygon>
                    <path d="M85.1141249,43.9458038 L91.6810876,43.9458038 L91.6810876,71.7687657 C91.6810876,73.3850529 92.0347941,75.051849 93.9549149,75.051849 C95.7739766,75.051849 96.3803306,73.4860708 96.3803306,71.7687657 L96.3803306,43.9458038 L101.936703,43.9458038 L101.936703,70.9101132 C101.936703,77.9794988 98.8038748,80.6059655 93.5506789,80.6059655 C88.499601,80.6059655 85.1141249,77.9794988 85.1141249,70.9101132 L85.1141249,43.9458038 Z" id="Fill-25"></path>
                    <polygon id="Fill-27" points="105.680003 43.9458038 114.419734 43.9458038 117.348573 62.3778379 117.451504 62.3778379 120.531931 43.9458038 129.069544 43.9458038 129.069544 79.8988399 123.209995 79.8988399 123.209995 53.5406382 123.108936 53.5406382 118.66234 79.8988399 115.026088 79.8988399 110.631894 53.5406382 110.528963 53.5406382 110.528963 79.8988399 105.680003 79.8988399"></polygon>
                    <path d="M0,87.1674554 L3.28628855,87.1674554 L3.28628855,101.085484 C3.28628855,101.893627 3.46220605,102.72609 4.42226643,102.72609 C5.33366878,102.72609 5.63684574,101.944136 5.63684574,101.085484 L5.63684574,87.1674554 L8.41596789,87.1674554 L8.41596789,100.657093 C8.41596789,104.194592 6.84955359,105.507825 4.22014845,105.507825 C1.69367377,105.507825 0,104.194592 0,100.657093 L0,87.1674554 Z" id="Fill-29"></path>
                    <polygon id="Fill-32" points="11.9260834 89.9460102 9.09456028 89.9460102 9.09456028 87.1680166 18.0420236 87.1680166 18.0420236 89.9460102 15.2105005 89.9460102 15.2105005 105.152953 11.9260834 105.152953"></polygon>
                    <path d="M22.1332283,94.7963682 L22.7901117,94.7963682 C24.0028195,94.7963682 24.457585,93.5841529 24.457585,92.2952387 C24.457585,90.3497078 23.7501721,89.7941091 22.6385232,89.7941091 L22.1332283,89.7941091 L22.1332283,94.7963682 Z M18.8488112,87.1676424 L22.5374642,87.1676424 C25.6721643,87.1676424 27.7438735,88.4808758 27.7438735,92.2690488 C27.7438735,93.7861888 27.2891081,95.8065477 25.8237528,96.6652003 L27.7682025,105.152579 L24.457585,105.152579 L22.9154997,97.4228349 L22.1332283,97.4228349 L22.1332283,105.152579 L18.8488112,105.152579 L18.8488112,87.1676424 Z" id="Fill-34"></path>
                    <polygon id="Fill-36" points="29.1310017 87.1674554 36.5607087 87.1674554 36.5607087 89.945449 32.4154188 89.945449 32.4154188 94.5417656 35.4733889 94.5417656 35.4733889 97.4731568 32.4154188 97.4731568 32.4154188 102.374398 36.7366262 102.374398 36.7366262 105.152392 29.1310017 105.152392"></polygon>
                    <path d="M43.5334046,93.6838613 C43.5334046,90.7038318 43.1534976,89.5907637 42.3450257,89.5907637 C41.6619418,89.5907637 40.9807294,90.0472152 40.9807294,96.158801 C40.9807294,102.070222 41.3344359,102.726838 42.3450257,102.726838 C43.4323456,102.726838 43.684993,101.060042 43.7355225,98.4597654 L46.5146447,98.5851025 C46.5146447,101.716659 46.0598793,105.506703 42.2177663,105.506703 C38.7050307,105.506703 37.5428524,102.070222 37.5428524,96.158801 C37.5428524,89.2877099 39.6164331,86.8127701 42.2177663,86.8127701 C46.0093498,86.8127701 46.4641152,90.2978893 46.4641152,93.5828434 L43.5334046,93.6838613 Z" id="Fill-38"></path>
                    <polygon id="Fill-40" points="48.306196 87.1674554 51.5906131 87.1674554 51.5906131 94.3902387 53.6641938 94.3902387 53.6641938 87.1674554 56.9486109 87.1674554 56.9486109 105.152392 53.6641938 105.152392 53.6641938 97.5236658 51.5906131 97.5236658 51.5906131 105.152392 48.306196 105.152392"></polygon>
                    <polygon id="Fill-42" points="60.5848629 89.9460102 57.7533398 89.9460102 57.7533398 87.1680166 66.7008031 87.1680166 66.7008031 89.9460102 63.86928 89.9460102 63.86928 105.152953 60.5848629 105.152953"></polygon>
                </g>
                <g id="Group-5" transform="translate(143.028258, 264.629706) rotate(163.000000) translate(-143.028258, -264.629706) translate(28.528258, 150.129706)" fill="#FFEC00">
                    <path d="M228.887159,114.577208 C228.887159,51.4545764 177.695966,0.284170858 114.54769,0.284170858 C51.4014692,0.284170858 0.210275374,51.4545764 0.210275374,114.577208 C0.210275374,177.699841 51.4014692,228.868191 114.54769,228.868191 C177.695966,228.868191 228.887159,177.699841 228.887159,114.577208" id="Fill-44"></path>
                </g>
                <path d="M197,158 L228,109" id="Stroke-1" stroke="#2B2523" stroke-width="4.646521"></path>
            </g>
        </g>
    </g>
</svg>