<?xml version="1.0" encoding="UTF-8"?>
<svg width="214px" height="355px" viewBox="0 0 214 355" version="1.1" xmlns="http://www.w3.org/2000/svg" xmlns:xlink="http://www.w3.org/1999/xlink">
    <!-- Generator: Sketch 50 (54983) - http://www.bohemiancoding.com/sketch -->
    <title>logo</title>
    <desc>Created with Sketch.</desc>
    <defs>
        <polygon id="path-1" points="0.000133136095 0.423590734 16.8618195 0.423590734 16.8618195 35.5886815 0.000133136095 35.5886815"></polygon>
    </defs>
    <g id="design" stroke="none" stroke-width="1" fill="none" fill-rule="evenodd">
        <g id="05-single-content-landscape" transform="translate(0.000000, -48.000000)">
            <g id="header" transform="translate(-137.000000, 45.000000)">
                <g id="logo" transform="translate(0.000000, 2.000000)">
                    <path d="M168.162988,141.02973 L205.162988,81.0297297" id="Stroke-1" stroke="#2B2523" stroke-width="4.646521"></path>
                    <g id="Group-33" transform="translate(0.000000, 0.908456)">
                        <g id="Group-4" transform="translate(207.000000, 0.000000)">
                            <mask id="mask-2" fill="white">
                                <use xlink:href="#path-1"></use>
                            </mask>
                            <g id="Clip-3"></g>
                            <path d="M11.2567899,13.3488359 C11.2567899,7.74092085 10.5445118,5.64960811 9.02409763,5.64960811 C7.74199704,5.64960811 6.45989645,6.5061139 6.45989645,18.0056699 C6.45989645,29.1255927 7.12424556,30.3603996 9.02409763,30.3603996 C11.0664053,30.3603996 11.5417012,27.2247625 11.6375592,22.3294923 L16.8618195,22.5679286 C16.8618195,28.4595695 16.0057544,35.5886815 8.78711538,35.5886815 C2.18489645,35.5886815 0.000133136095,29.1255927 0.000133136095,18.0056699 C0.000133136095,5.07949228 3.89569527,0.422658301 8.78711538,0.422658301 C15.9112278,0.422658301 16.7672929,6.98032239 16.7672929,13.1583533 L11.2567899,13.3488359 Z" id="Fill-2" fill="#2B2523" mask="url(#mask-2)"></path>
                        </g>
                        <polygon id="Fill-5" fill="#2B2523" points="227.23429 1.08788224 241.197604 1.08788224 241.197604 6.31483205 233.409142 6.31483205 233.409142 14.9638089 239.155296 14.9638089 239.155296 20.4771486 233.409142 20.4771486 233.409142 29.6962413 241.530444 29.6962413 241.530444 34.9231911 227.23429 34.9231911"></polygon>
                        <polygon id="Fill-7" fill="#2B2523" points="243.714541 1.08788224 249.746938 1.08788224 255.398565 18.9559517 255.494423 18.9559517 255.494423 1.08788224 260.433772 1.08788224 260.433772 34.9231911 255.636879 34.9231911 249.03466 14.4416467 248.938802 14.4416467 248.938802 34.9231911 243.714541 34.9231911"></polygon>
                        <polygon id="Fill-9" fill="#2B2523" points="267.035459 6.31523166 261.71534 6.31523166 261.71534 1.08828185 278.529098 1.08828185 278.529098 6.31523166 273.210311 6.31523166 273.210311 34.9235907 267.035459 34.9235907"></polygon>
                        <path d="M286.224364,15.4392162 L287.458536,15.4392162 C289.739157,15.4392162 290.593891,13.1587529 290.593891,10.7344286 C290.593891,7.0752973 289.263861,6.03097297 287.173624,6.03097297 L286.224364,6.03097297 L286.224364,15.4392162 Z M280.049512,1.08774903 L286.984571,1.08774903 C292.874512,1.08774903 296.768743,3.56002703 296.768743,10.6878069 C296.768743,13.5383861 295.914009,17.3400463 293.158092,18.9558185 L296.816672,34.9230579 L290.593891,34.9230579 L287.696849,20.3811081 L286.224364,20.3811081 L286.224364,34.9230579 L280.049512,34.9230579 L280.049512,1.08774903 Z" id="Fill-11" fill="#2B2523"></path>
                        <path d="M306.363195,6.31523166 L306.268669,6.31523166 L304.320888,22.4729537 L308.167189,22.4729537 L306.363195,6.31523166 Z M302.421036,1.08828185 L311.350473,1.08828185 L315.529615,34.9235907 L309.593077,34.9235907 L308.690414,27.4148456 L303.703136,27.4148456 L302.848402,34.9235907 L297.67074,34.9235907 L302.421036,1.08828185 Z" id="Fill-13" fill="#2B2523"></path>
                        <path d="M324.791627,6.31523166 L324.697101,6.31523166 L322.74932,22.4729537 L326.595621,22.4729537 L324.791627,6.31523166 Z M320.849467,1.08828185 L329.778905,1.08828185 L333.958047,34.9235907 L328.021509,34.9235907 L327.118846,27.4148456 L322.131568,27.4148456 L321.276834,34.9235907 L316.099172,34.9235907 L320.849467,1.08828185 Z" id="Fill-15" fill="#2B2523"></path>
                        <polygon id="Fill-17" fill="#2B2523" points="336.237604 1.08788224 342.412456 1.08788224 342.412456 29.6962413 350.296775 29.6962413 350.296775 34.9231911 336.237604 34.9231911"></polygon>
                        <polygon id="Fill-19" fill="#2B2523" points="207.665015 41.5292085 215.882175 41.5292085 218.63676 58.8737838 218.732618 58.8737838 221.62966 41.5292085 229.656435 41.5292085 229.656435 75.3645174 224.145932 75.3645174 224.145932 50.5578185 224.051405 50.5578185 219.870932 75.3645174 216.451997 75.3645174 212.319453 50.5578185 212.224926 50.5578185 212.224926 75.3645174 207.665015 75.3645174"></polygon>
                        <path d="M233.170163,41.5292085 L239.345015,41.5292085 L239.345015,67.7132432 C239.345015,69.2344402 239.677855,70.8022587 241.481849,70.8022587 C243.192648,70.8022587 243.76247,69.3290154 243.76247,67.7132432 L243.76247,41.5292085 L248.986731,41.5292085 L248.986731,66.9060232 C248.986731,73.5582625 246.04176,76.0292085 241.102411,76.0292085 C236.352115,76.0292085 233.170163,73.5582625 233.170163,66.9060232 L233.170163,41.5292085 Z" id="Fill-21" fill="#2B2523"></path>
                        <path d="M256.966376,65.5750425 C256.966376,67.4758726 256.966376,70.8019923 259.626435,70.8019923 C261.668743,70.8019923 262.381021,68.9011622 262.381021,67.5238263 C262.381021,61.4883243 251.172293,60.1096564 251.172293,50.0833436 C251.172293,44.9989228 253.926879,40.864251 259.151139,40.864251 C264.70824,40.864251 266.845074,45.0934981 266.98753,51.1756216 L261.478358,51.1756216 C261.478358,49.2761236 261.478358,46.0912008 259.008683,46.0912008 C257.536198,46.0912008 256.681464,47.3273398 256.681464,49.1802162 C256.681464,54.9306602 267.891524,56.879444 267.891524,66.7152741 C267.891524,71.8956023 264.946553,76.0302741 259.388121,76.0302741 C252.787234,76.0302741 251.457204,70.2318764 251.457204,65.5750425 L256.966376,65.5750425 Z" id="Fill-23" fill="#2B2523"></path>
                        <polygon id="Fill-25" fill="#2B2523" points="270.313136 41.5292085 284.27645 41.5292085 284.27645 46.7561583 276.487988 46.7561583 276.487988 55.4051351 282.234142 55.4051351 282.234142 60.9184749 276.487988 60.9184749 276.487988 70.1375676 284.60929 70.1375676 284.60929 75.3645174 270.313136 75.3645174"></polygon>
                        <path d="M286.79392,41.5292085 L292.968772,41.5292085 L292.968772,67.7132432 C292.968772,69.2344402 293.301612,70.8022587 295.105607,70.8022587 C296.816405,70.8022587 297.386228,69.3290154 297.386228,67.7132432 L297.386228,41.5292085 L302.610488,41.5292085 L302.610488,66.9060232 C302.610488,73.5582625 299.665518,76.0292085 294.726169,76.0292085 C289.975873,76.0292085 286.79392,73.5582625 286.79392,66.9060232 L286.79392,41.5292085 Z" id="Fill-27" fill="#2B2523"></path>
                        <polygon id="Fill-29" fill="#2B2523" points="306.124615 41.5292085 314.341775 41.5292085 317.096361 58.8737838 317.192219 58.8737838 320.08926 41.5292085 328.116036 41.5292085 328.116036 75.3645174 322.605533 75.3645174 322.605533 50.5578185 322.511006 50.5578185 318.330533 75.3645174 314.911598 75.3645174 310.779053 50.5578185 310.684527 50.5578185 310.684527 75.3645174 306.124615 75.3645174"></polygon>
                        <path d="M0,243.603571 C0,180.860193 50.8273669,130 113.547781,130 C176.238905,130 227.08358,180.860193 227.08358,243.603571 C227.08358,306.34029 176.238905,357.19249 113.547781,357.19249 C50.8273669,357.19249 0,306.34029 0,243.603571" id="Fill-31" fill="#FAE800"></path>
                    </g>
                </g>
            </g>
        </g>
    </g>
</svg>