<?xml version="1.0" encoding="UTF-8"?>
<svg width="351px" height="385px" viewBox="0 0 351 385" version="1.1" xmlns="http://www.w3.org/2000/svg" xmlns:xlink="http://www.w3.org/1999/xlink">
    <!-- Generator: Sketch 50 (54983) - http://www.bohemiancoding.com/sketch -->
    <title>logo</title>
    <desc>Created with Sketch.</desc>
    <defs></defs>
    <g id="design" stroke="none" stroke-width="1" fill="none" fill-rule="evenodd">
        <g id="04-multi-content" transform="translate(-404.000000, -2730.000000)">
            <g id="logo" transform="translate(404.000000, 2730.000000)">
                <g id="Group-3" fill="#000000">
                    <path d="M18.4722436,31.7518365 L23.536998,31.7518365 L23.536998,9.71750223 L18.4722436,9.71750223 L18.4722436,31.7518365 Z M18.4722436,5.59181886 L23.536998,5.59181886 L23.536998,0.500158238 L18.4722436,0.500158238 L18.4722436,5.59181886 Z" id="Fill-4"></path>
                    <path d="M7.11739096,13.7553966 L8.2521336,13.7553966 C10.3483379,13.7553966 11.1340432,11.64876 11.1340432,9.41024085 C11.1340432,6.03006697 9.91216503,5.06458738 7.99072692,5.06458738 L7.11739096,5.06458738 L7.11739096,13.7553966 Z M1.44120236,0.49995917 L7.81596071,0.49995917 C13.2312377,0.49995917 16.8117171,2.78227328 16.8117171,9.3664459 C16.8117171,12.0001149 16.0255167,15.5116737 13.4926444,17.003688 L16.8547898,31.7521351 L11.1340432,31.7521351 L8.47096267,18.3205225 L7.11739096,18.3205225 L7.11739096,31.7521351 L1.44120236,31.7521351 L1.44120236,0.49995917 Z" id="Fill-1"></path>
                    <path d="M34.4105752,18.3646658 L34.4105752,17.7500435 C34.4105752,14.5460448 33.9308346,13.3168002 32.7079662,13.3168002 C31.5722334,13.3168002 31.1350703,14.3698696 31.1350703,17.7500435 L31.1350703,18.3646658 L34.4105752,18.3646658 Z M31.1350703,22.3151694 L31.1350703,23.280649 C31.1350703,27.09927 32.0529642,27.8890722 33.1005713,27.8890722 C34.9338837,27.8890722 35.2844063,26.3527652 35.764147,24.8607509 L39.3020487,25.914318 C38.558921,30.0404991 36.2003198,32.1028431 32.751534,32.1028431 C28.7774593,32.1028431 25.7212786,29.0745218 25.7212786,20.7345698 C25.7212786,12.3946179 28.7774593,9.36629659 32.751534,9.36629659 C37.8593611,9.41009154 39.2129328,15.6872018 39.2129328,20.0761526 L39.2129328,22.3151694 L31.1350703,22.3151694 Z" id="Fill-6"></path>
                    <path d="M40.3922829,9.71765154 L42.7508841,9.71765154 L42.7508841,1.68476187 L47.8166287,1.68476187 L47.8166287,9.71765154 L51.0040079,9.71765154 L51.0040079,13.6676574 L47.8601965,13.6676574 L47.8601965,25.7381429 C47.8601965,26.4846477 48.0349627,27.6258048 49.868275,27.6258048 C50.4806994,27.6258048 51.0040079,27.5387126 51.3089823,27.5387126 L51.3089823,31.6643959 C49.7811395,32.0590482 48.0349627,32.1028431 46.9863654,32.1028431 C44.7148998,32.1028431 42.7508841,31.0059787 42.7508841,27.9776574 L42.7508841,13.6676574 L40.3922829,13.6676574 L40.3922829,9.71765154 Z" id="Fill-7"></path>
                    <polygon id="Fill-8" points="51.5726169 9.71765154 56.5947937 9.71765154 58.5593045 21.6567522 58.6464401 21.6567522 60.6995717 9.71765154 64.8479175 9.71765154 60.6124361 31.7519858 56.0695049 31.7519858"></polygon>
                    <path d="M74.8908354,18.3646658 L74.8908354,17.7500435 C74.8908354,14.5460448 74.4110947,13.3168002 73.1882263,13.3168002 C72.0524935,13.3168002 71.6163206,14.3698696 71.6163206,17.7500435 L71.6163206,18.3646658 L74.8908354,18.3646658 Z M71.6163206,22.3151694 L71.6163206,23.280649 C71.6163206,27.09927 72.5322342,27.8890722 73.5808314,27.8890722 C75.4141438,27.8890722 75.7646664,26.3527652 76.2444071,24.8607509 L79.7823088,25.914318 C79.0391811,30.0404991 76.68058,32.1028431 73.2317941,32.1028431 C69.2582145,32.1028431 66.2015387,29.0745218 66.2015387,20.7345698 C66.2015387,12.3946179 69.2582145,9.36629659 73.2317941,9.36629659 C78.3396212,9.41009154 79.693688,15.6872018 79.693688,20.0761526 L79.693688,22.3151694 L71.6163206,22.3151694 Z" id="Fill-9"></path>
                    <polygon id="Fill-10" points="81.5737367 31.7523342 86.6379961 31.7523342 86.6379961 0.500158238 81.5737367 0.500158238"></polygon>
                    <path d="M97.5113752,13.4924279 C97.2935363,13.0967803 96.7682475,12.789718 96.1142358,12.789718 C94.6294656,12.789718 94.2368605,13.7114026 94.2368605,20.6469302 C94.2368605,27.4067803 94.4987623,28.4160548 95.9835324,28.4160548 C96.7246798,28.4160548 97.2499686,28.1089925 97.5113752,27.7138426 L97.5113752,13.4924279 Z M97.7292141,29.997152 L97.6420786,29.997152 C96.6375442,31.1378114 95.8087662,32.103291 93.7992024,32.103291 C90.1320825,32.103291 88.8220786,27.8890224 88.8220786,20.6907251 C88.8220786,13.404838 90.5246876,9.36624683 94.2368605,9.36624683 C95.7216306,9.36624683 96.8118153,10.112254 97.4242397,10.9463487 L97.5113752,10.9463487 L97.5113752,0.500257771 L102.57712,0.500257771 L102.57712,31.7519361 L97.7292141,31.7519361 L97.7292141,29.997152 Z" id="Fill-11"></path>
                    <path d="M5.32680472,60.104737 C5.32680472,61.8610141 5.32680472,64.9331303 7.77254145,64.9331303 C9.64942161,64.9331303 10.3044236,63.1778486 10.3044236,61.904809 C10.3044236,56.3304086 0.000148526523,55.0568713 0.000148526523,45.7957324 C0.000148526523,41.098724 2.53203065,37.2806006 7.33537839,37.2806006 C12.4441957,37.2806006 14.4092016,41.1863139 14.5399049,46.8050069 L9.47515049,46.8050069 C9.47515049,45.0497252 9.47515049,42.1089939 7.20467505,42.1089939 C5.85110334,42.1089939 5.06490295,43.2496533 5.06490295,44.9621353 C5.06490295,50.2727707 15.3706633,52.072345 15.3706633,61.1588018 C15.3706633,65.9424048 12.6630248,69.7615235 7.55371238,69.7615235 C1.48442358,69.7615235 0.261555206,64.4065955 0.261555206,60.104737 L5.32680472,60.104737 Z" id="Fill-12"></path>
                    <path d="M25.4151159,55.1448096 C25.3279804,51.7213385 25.0220157,50.4478012 23.9303458,50.4478012 C22.7951081,50.4478012 22.5332063,51.7646357 22.5332063,58.7001633 C22.5332063,64.2307688 22.9693792,65.548101 24.1486798,65.548101 C25.6770177,65.548101 25.7641532,63.0020218 26.0701179,60.7197077 L29.9560668,60.8510926 C29.8689312,64.932981 29.0391631,69.4100193 23.8872731,69.4976092 C19.9131984,69.4976092 16.8565226,66.4692879 16.8565226,58.1293359 C16.8565226,49.789384 19.9131984,46.7610627 23.8872731,46.7610627 C28.7777564,46.7610627 29.6070295,50.624474 29.9560668,55.0134248 L25.4151159,55.1448096 Z" id="Fill-13"></path>
                    <path d="M31.4422232,37.938769 L36.5069776,37.938769 L36.5069776,49.2194524 L36.5946083,49.2194524 C37.7739088,47.9902078 39.3017517,46.7609631 41.1791269,46.7609631 C43.5812959,46.7609631 44.7165336,48.4286549 44.7165336,51.3265867 L44.7165336,69.1471501 L39.650789,69.1471501 L39.650789,53.1694583 C39.650789,51.5017665 39.0839128,50.9747341 38.2100817,50.9747341 C37.5120071,50.9747341 36.85651,51.3703817 36.5069776,51.8088288 L36.5069776,69.1471501 L31.4422232,69.1471501 L31.4422232,37.938769 Z" id="Fill-14"></path>
                    <path d="M46.9009132,47.1126167 L51.9651725,47.1126167 L51.9651725,50.9750327 L52.0523081,50.9750327 C53.2316086,49.0873708 54.7163788,47.1564116 57.1180527,46.9802365 L57.1180527,52.8188996 C56.4204731,52.5984319 55.8080487,52.5551346 55.1540369,52.5551346 C53.8876008,52.5551346 52.4028306,53.6524967 51.9651725,54.5741813 L51.9651725,69.146951 L46.9009132,69.146951 L46.9009132,47.1126167 Z" id="Fill-15"></path>
                    <path d="M66.421556,44.3035688 L70.9625069,44.3035688 L70.9625069,39.7379452 L66.421556,39.7379452 L66.421556,44.3035688 Z M65.2422554,50.4482989 C64.0629548,50.4482989 63.6703497,51.4142761 63.6703497,58.1293359 C63.6703497,64.8458887 64.0629548,65.8108707 65.2422554,65.8108707 C66.421556,65.8108707 66.8141611,64.8458887 66.8141611,58.1293359 C66.8141611,51.4142761 66.421556,50.4482989 65.2422554,50.4482989 Z M59.5220039,44.3035688 L64.0629548,44.3035688 L64.0629548,39.7379452 L59.5220039,39.7379452 L59.5220039,44.3035688 Z M65.2422554,69.4976092 C61.3117485,69.4976092 58.2555678,66.4692879 58.2555678,58.1293359 C58.2555678,49.789384 61.3117485,46.7610627 65.2422554,46.7610627 C69.1722672,46.7610627 72.228943,49.789384 72.228943,58.1293359 C72.228943,66.4692879 69.1722672,69.4976092 65.2422554,69.4976092 Z" id="Fill-16"></path>
                    <path d="M83.1020747,50.8871442 C82.8842358,50.4919943 82.358947,50.184932 81.7049352,50.184932 C80.220165,50.184932 79.8275599,51.1061189 79.8275599,58.0416465 C79.8275599,64.8014966 80.0894617,65.8107711 81.5737367,65.8107711 C82.3153792,65.8107711 82.8401729,65.5042065 83.1020747,65.1085589 L83.1020747,50.8871442 Z M83.3199136,67.3918684 L83.232778,67.3918684 C82.2282436,68.5325277 81.3994656,69.4980073 79.3899018,69.4980073 C75.7227819,69.4980073 74.412778,65.2842364 74.412778,58.0854415 C74.412778,50.7995543 76.115387,46.7609631 79.8275599,46.7609631 C81.3123301,46.7609631 82.4025147,47.5069703 83.0149391,48.341065 L83.1020747,48.341065 L83.1020747,37.8949741 L88.1678193,37.8949741 L88.1678193,69.1471501 L83.3199136,69.1471501 L83.3199136,67.3918684 Z" id="Fill-17"></path>
                    <path d="M99.2591859,55.759631 L99.2591859,55.1450087 C99.2591859,51.9410099 98.7794452,50.7117653 97.5565768,50.7117653 C96.4213391,50.7117653 95.9851662,51.7648348 95.9851662,55.1450087 L95.9851662,55.759631 L99.2591859,55.759631 Z M95.9851662,59.7101346 L95.9851662,60.6756142 C95.9851662,64.4942352 96.9005847,65.2840373 97.9491819,65.2840373 C99.7824943,65.2840373 100.133512,63.7477304 100.612758,62.255716 L104.149174,63.3092832 C103.407532,67.4354642 101.04893,69.4978083 97.6001446,69.4978083 C93.626565,69.4978083 90.5698892,66.469487 90.5698892,58.129535 C90.5698892,49.789583 93.626565,46.7607641 97.6001446,46.7607641 C102.707972,46.8050567 104.062039,53.0816693 104.062039,57.4711177 L104.062039,59.7101346 L95.9851662,59.7101346 Z" id="Fill-18"></path>
                    <path d="M105.942384,47.1126167 L111.006644,47.1126167 L111.006644,50.9750327 L111.093779,50.9750327 C112.27308,49.0873708 113.757355,47.1564116 116.159524,46.9802365 L116.159524,52.8188996 C115.461944,52.5984319 114.84952,52.5551346 114.195508,52.5551346 C112.929072,52.5551346 111.444302,53.6524967 111.006644,54.5741813 L111.006644,69.146951 L105.942384,69.146951 L105.942384,47.1126167 Z" id="Fill-19"></path>
                    <path d="M117.295356,37.938769 L122.359615,37.938769 L122.359615,49.2194524 L122.44675,49.2194524 C123.626051,47.9902078 125.154389,46.7609631 127.032754,46.7609631 C129.433438,46.7609631 130.569171,48.4286549 130.569171,51.3265867 L130.569171,69.1471501 L125.504912,69.1471501 L125.504912,53.1694583 C125.504912,51.5017665 124.936055,50.9747341 124.063709,50.9747341 C123.364149,50.9747341 122.710138,51.3703817 122.359615,51.8088288 L122.359615,69.1471501 L117.295356,69.1471501 L117.295356,37.938769 Z" id="Fill-20"></path>
                    <path d="M146.028356,69.1471501 L140.964097,69.1471501 L140.964097,67.0405134 L140.876961,67.0405134 C139.697661,68.2692604 138.213385,69.4980073 136.508796,69.4980073 C134.195743,69.4980073 132.754541,67.698433 132.754541,64.9333791 L132.754541,47.1128158 L137.8188,47.1128158 L137.8188,63.0895122 C137.8188,64.7581993 138.387657,65.2842364 139.260002,65.2842364 C139.959562,65.2842364 140.613574,64.8895842 140.964097,64.4501417 L140.964097,47.1128158 L146.028356,47.1128158 L146.028356,69.1471501 Z" id="Fill-21"></path>
                    <path d="M148.214122,69.1467519 L153.278381,69.1467519 L153.278381,47.1124176 L148.214122,47.1124176 L148.214122,69.1467519 Z M148.214122,42.9862366 L153.278381,42.9862366 L153.278381,37.8950736 L148.214122,37.8950736 L148.214122,42.9862366 Z" id="Fill-22"></path>
                    <path d="M163.190596,53.2571477 C163.015829,51.8965183 162.710855,50.4478012 160.964678,50.4478012 C160.003217,50.4478012 159.43634,51.3699835 159.43634,52.3354631 C159.43634,55.9346117 167.644411,56.2864643 167.644411,63.0020218 C167.644411,66.8211405 165.113024,69.4976092 161.182517,69.4976092 C157.034171,69.4976092 155.331562,66.9963203 154.893904,63.0896117 L158.867979,62.4744917 C159.216521,64.8458887 159.74181,65.8108707 161.400851,65.8108707 C162.448953,65.8108707 163.10346,65.0210685 163.10346,64.011794 C163.10346,60.5440302 155.244427,60.3240601 155.244427,52.8624955 C155.244427,49.3509368 157.732246,46.7610627 161.269653,46.7610627 C164.806069,46.7610627 166.553731,49.3509368 166.859201,52.6425254 L163.190596,53.2571477 Z" id="Fill-23"></path>
                </g>
                <path d="M55,75 L152.5,181.5" id="Stroke-24" stroke="#000000" stroke-width="5.013855"></path>
                <polygon id="Fill-25" fill="#EB0000" points="220.555657 124.532918 350.88075 254.614981 220.555657 384.697044 90.230565 254.614981"></polygon>
            </g>
        </g>
    </g>
</svg>