<svg id="Layer_1" data-name="Layer 1" xmlns="http://www.w3.org/2000/svg" viewBox="0 0 1374 512"><defs><style>.cls-1{fill:#00abf1;}.cls-2,.cls-3{fill:#fff;}.cls-3{font-size:253.24px;font-family:Arial,Lato;font-weight:700;}.cls-4{letter-spacing:-2px;}.cls-5{letter-spacing:-1px;}</style></defs><title>share_button_twitter</title><rect class="cls-1" width="1374" height="512" rx="64" ry="64"/><path class="cls-2" d="M492.67,166a119,119,0,0,1-34.18,9.37,59.75,59.75,0,0,0,26.21-32.92,119.21,119.21,0,0,1-37.8,14.44,59.58,59.58,0,0,0-101.46,54.29A169,169,0,0,1,222.75,149a59.59,59.59,0,0,0,18.42,79.44,59.35,59.35,0,0,1-27-7.44v0.73a59.58,59.58,0,0,0,47.75,58.37,59.59,59.59,0,0,1-26.87,1,59.58,59.58,0,0,0,55.6,41.34,120,120,0,0,1-88.13,24.66,168.46,168.46,0,0,0,91.25,26.75c109.48,0,169.35-90.66,169.35-169.35q0-3.88-.17-7.7A121,121,0,0,0,492.67,166h0Z"/><text class="cls-3" transform="translate(559.33 341.57)">t<tspan class="cls-4" x="94.21" y="0">w</tspan><tspan x="295.28" y="0">e</tspan><tspan class="cls-5" x="430.51" y="0">e</tspan><tspan x="564.48" y="0">t</tspan></text></svg>
