<svg id="Layer_1" data-name="Layer 1" xmlns="http://www.w3.org/2000/svg" preserveAspectRatio="none" viewBox="0 0 163.8 53.8">
  <defs>
    <style>
      .cls-1 {
        fill: #3b5998;
      }

      .cls-2 {
        opacity: 0.98;
      }

      .cls-3 {
        fill: #fff;
      }

      .cls-4 {
        fill: #334e85;
      }
    </style>
  </defs>
  <title>4ae4b149-8a5a-4955-8772-8213c1afa46d</title>
  <g>
    <rect class="cls-1" width="163.8" height="53.82" rx="4" ry="4"/>
    <g>
      <g id="fb_logo_Group_" data-name="fb_logo&lt;Group&gt;" class="cls-2">
        <path class="cls-3" d="M48.7,9.6V44.3a2.2,2.2,0,0,1-2.2,2.2H36.6V31.4h5.1l0.8-5.9H36.6V21.7c0-1.7.5-2.8,2.9-2.8h3.1V13.6a40.6,40.6,0,0,0-4.5-.2c-4.5,0-7.6,2.7-7.6,7.8v4.3H25.4v5.9h5.1V46.5H11.8a2.2,2.2,0,0,1-2.2-2.2V9.6a2.2,2.2,0,0,1,2.2-2.2H46.5A2.2,2.2,0,0,1,48.7,9.6Z"/>
      </g>
      <g id="Share_text_Group_" data-name="Share_text&lt;Group&gt;">
        <g id="Share_dBlue_Group_" data-name="Share_dBlue&lt;Group&gt;">
          <path class="cls-4" d="M67.3,29.2c0,3,2.4,4.2,5,4.2s4.4-.5,4.4-2.8-3.4-2.9-6.8-3.8-6.8-2.2-6.8-6.5,4.4-6.9,8.5-6.9,9.1,2.1,9.1,7.3H76.1c-0.2-2.7-2.1-3.4-4.5-3.4s-3.4.7-3.4,2.6,1.1,2,6.8,3.4c1.7,0.4,6.8,1.5,6.8,6.6s-3.3,7.3-9.5,7.3-9.8-2.5-9.7-8.1h4.9Z"/>
          <path class="cls-4" d="M84.2,14h4.5v8.6h0.1a5.8,5.8,0,0,1,4.8-2.7c4.8,0,6,2.7,6,6.8V36.7H95.1V27.4c0-2.7-.8-4.1-2.9-4.1s-3.5,1.4-3.5,4.7v8.7H84.2V14Z"/>
          <path class="cls-4" d="M102.9,25.3c0.3-4.2,4.1-5.5,7.8-5.5s7.2,0.7,7.2,4.7v8.6a8.4,8.4,0,0,0,.6,3.7h-4.6a6.9,6.9,0,0,1-.3-1.6,7.6,7.6,0,0,1-5.6,2c-3.1,0-5.6-1.6-5.6-4.9s2.8-4.6,5.6-5,5.4-.3,5.4-2.2-1.3-2.2-2.9-2.2-2.8.7-3,2.5h-4.5Zm10.5,3.4c-0.8.7-2.4,0.7-3.8,1s-2.7.8-2.7,2.4,1.3,2.1,2.8,2.1c3.5,0,3.7-2.8,3.7-3.8V28.7Z"/>
          <path class="cls-4" d="M121.5,20.2h4.3v3.1h0.1a5.8,5.8,0,0,1,5.3-3.5l1,0.2v4.2l-1.6-.2c-3.3,0-4.5,2.4-4.5,5.3v7.4h-4.5V20.2Z"/>
          <path class="cls-4" d="M137,29.6c0.1,2.9,1.5,4.2,4.1,4.2a3.7,3.7,0,0,0,3.6-2.1h4c-1.3,3.9-4,5.6-7.7,5.6s-8.4-3.6-8.4-8.7,3.4-8.7,8.4-8.7,8.3,4.7,8,9.8H137Zm7.4-2.9c-0.4-2.3-1.4-3.5-3.6-3.5a3.6,3.6,0,0,0-3.8,3.5h7.4Z"/>
        </g>
        <g id="Share_white_Group_" data-name="Share_white&lt;Group&gt;">
          <path class="cls-3" d="M67.3,31.4c0,3,2.4,4.2,5,4.2s4.4-.5,4.4-2.8-3.4-2.9-6.8-3.8-6.8-2.2-6.8-6.5,4.4-6.9,8.5-6.9,9.1,2.1,9.1,7.3H76.1c-0.2-2.7-2.1-3.4-4.5-3.4s-3.4.7-3.4,2.6,1.1,2,6.8,3.4c1.7,0.4,6.8,1.5,6.8,6.6s-3.3,7.3-9.5,7.3-9.8-2.5-9.7-8.1h4.9Z"/>
          <path class="cls-3" d="M84.2,16.1h4.5v8.6h0.1A5.8,5.8,0,0,1,93.6,22c4.8,0,6,2.7,6,6.8V38.9H95.1V29.6c0-2.7-.8-4.1-2.9-4.1s-3.5,1.4-3.5,4.7v8.7H84.2V16.1Z"/>
          <path class="cls-3" d="M102.9,27.5c0.3-4.2,4.1-5.5,7.8-5.5s7.2,0.7,7.2,4.7v8.6a8.4,8.4,0,0,0,.6,3.7h-4.6a6.9,6.9,0,0,1-.3-1.6,7.6,7.6,0,0,1-5.6,2c-3.1,0-5.6-1.6-5.6-4.9s2.8-4.6,5.6-5,5.4-.3,5.4-2.2-1.3-2.2-2.9-2.2-2.8.7-3,2.5h-4.5Zm10.5,3.4c-0.8.7-2.4,0.7-3.8,1s-2.7.8-2.7,2.4,1.3,2.1,2.8,2.1c3.5,0,3.7-2.8,3.7-3.8V30.8Z"/>
          <path class="cls-3" d="M121.5,22.4h4.3v3.1h0.1a5.8,5.8,0,0,1,5.3-3.5l1,0.2v4.2l-1.6-.2c-3.3,0-4.5,2.4-4.5,5.3v7.4h-4.5V22.4Z"/>
          <path class="cls-3" d="M137,31.8c0.1,2.9,1.5,4.2,4.1,4.2a3.7,3.7,0,0,0,3.6-2.1h4c-1.3,3.9-4,5.6-7.7,5.6s-8.4-3.6-8.4-8.7,3.4-8.7,8.4-8.7,8.3,4.7,8,9.8H137Zm7.4-2.9c-0.4-2.3-1.4-3.5-3.6-3.5a3.6,3.6,0,0,0-3.8,3.5h7.4Z"/>
        </g>
      </g>
    </g>
  </g>
</svg>
